<mxfile host="Electron" agent="Mozilla/5.0 (Windows NT 10.0; Win64; x64) AppleWebKit/537.36 (KHTML, like Gecko) draw.io/26.0.15 Chrome/132.0.6834.196 Electron/34.2.0 Safari/537.36" version="26.0.15">
  <diagram name="Страница — 1" id="yL1o1aRQWw3MuyUYtJgd">
    <mxGraphModel dx="2247" dy="920" grid="1" gridSize="10" guides="1" tooltips="1" connect="1" arrows="1" fold="1" page="1" pageScale="1" pageWidth="827" pageHeight="1169" math="0" shadow="0">
      <root>
        <mxCell id="0" />
        <mxCell id="1" parent="0" />
        <mxCell id="1gYpZBUZ1nTDD1e3TG9W-1" value="" style="rounded=0;whiteSpace=wrap;html=1;" vertex="1" parent="1">
          <mxGeometry x="100" y="70" width="400" height="200" as="geometry" />
        </mxCell>
        <mxCell id="1gYpZBUZ1nTDD1e3TG9W-2" value="SystemLogic" style="text;html=1;align=center;verticalAlign=middle;whiteSpace=wrap;rounded=0;" vertex="1" parent="1">
          <mxGeometry x="120" y="70" width="60" height="30" as="geometry" />
        </mxCell>
        <mxCell id="1gYpZBUZ1nTDD1e3TG9W-3" value="Vehicle" style="swimlane;fontStyle=0;childLayout=stackLayout;horizontal=1;startSize=26;fillColor=none;horizontalStack=0;resizeParent=1;resizeParentMax=0;resizeLast=0;collapsible=1;marginBottom=0;whiteSpace=wrap;html=1;" vertex="1" parent="1">
          <mxGeometry x="110" y="130" width="140" height="52" as="geometry" />
        </mxCell>
        <mxCell id="1gYpZBUZ1nTDD1e3TG9W-7" value="Route" style="swimlane;fontStyle=0;childLayout=stackLayout;horizontal=1;startSize=26;fillColor=none;horizontalStack=0;resizeParent=1;resizeParentMax=0;resizeLast=0;collapsible=1;marginBottom=0;whiteSpace=wrap;html=1;" vertex="1" parent="1">
          <mxGeometry x="220" y="198" width="140" height="52" as="geometry" />
        </mxCell>
        <mxCell id="1gYpZBUZ1nTDD1e3TG9W-8" value="Driver" style="swimlane;fontStyle=0;childLayout=stackLayout;horizontal=1;startSize=26;fillColor=none;horizontalStack=0;resizeParent=1;resizeParentMax=0;resizeLast=0;collapsible=1;marginBottom=0;whiteSpace=wrap;html=1;" vertex="1" parent="1">
          <mxGeometry x="340" y="130" width="140" height="52" as="geometry" />
        </mxCell>
        <mxCell id="1gYpZBUZ1nTDD1e3TG9W-9" value="" style="endArrow=none;html=1;rounded=0;entryX=0.5;entryY=1;entryDx=0;entryDy=0;exitX=0;exitY=0.75;exitDx=0;exitDy=0;" edge="1" parent="1" source="1gYpZBUZ1nTDD1e3TG9W-7" target="1gYpZBUZ1nTDD1e3TG9W-3">
          <mxGeometry width="50" height="50" relative="1" as="geometry">
            <mxPoint x="110" y="270" as="sourcePoint" />
            <mxPoint x="160" y="220" as="targetPoint" />
            <Array as="points">
              <mxPoint x="180" y="237" />
            </Array>
          </mxGeometry>
        </mxCell>
        <mxCell id="1gYpZBUZ1nTDD1e3TG9W-10" value="" style="endArrow=none;html=1;rounded=0;exitX=1;exitY=0.5;exitDx=0;exitDy=0;entryX=0.5;entryY=1;entryDx=0;entryDy=0;" edge="1" parent="1" source="1gYpZBUZ1nTDD1e3TG9W-7" target="1gYpZBUZ1nTDD1e3TG9W-8">
          <mxGeometry width="50" height="50" relative="1" as="geometry">
            <mxPoint x="390" y="250" as="sourcePoint" />
            <mxPoint x="440" y="200" as="targetPoint" />
            <Array as="points">
              <mxPoint x="410" y="224" />
            </Array>
          </mxGeometry>
        </mxCell>
        <mxCell id="1gYpZBUZ1nTDD1e3TG9W-11" value="" style="rounded=0;whiteSpace=wrap;html=1;" vertex="1" parent="1">
          <mxGeometry x="350" y="360" width="530" height="220" as="geometry" />
        </mxCell>
        <mxCell id="1gYpZBUZ1nTDD1e3TG9W-12" value="Role" style="swimlane;fontStyle=0;childLayout=stackLayout;horizontal=1;startSize=26;fillColor=none;horizontalStack=0;resizeParent=1;resizeParentMax=0;resizeLast=0;collapsible=1;marginBottom=0;whiteSpace=wrap;html=1;" vertex="1" parent="1">
          <mxGeometry x="370" y="490" width="140" height="52" as="geometry" />
        </mxCell>
        <mxCell id="1gYpZBUZ1nTDD1e3TG9W-13" value="User" style="swimlane;fontStyle=0;childLayout=stackLayout;horizontal=1;startSize=26;fillColor=none;horizontalStack=0;resizeParent=1;resizeParentMax=0;resizeLast=0;collapsible=1;marginBottom=0;whiteSpace=wrap;html=1;" vertex="1" parent="1">
          <mxGeometry x="370" y="400" width="140" height="52" as="geometry" />
        </mxCell>
        <mxCell id="1gYpZBUZ1nTDD1e3TG9W-14" value="UserInterface" style="text;html=1;align=center;verticalAlign=middle;whiteSpace=wrap;rounded=0;" vertex="1" parent="1">
          <mxGeometry x="370" y="360" width="60" height="30" as="geometry" />
        </mxCell>
        <mxCell id="1gYpZBUZ1nTDD1e3TG9W-15" value="" style="endArrow=none;html=1;rounded=0;entryX=0.5;entryY=1;entryDx=0;entryDy=0;exitX=0.5;exitY=0;exitDx=0;exitDy=0;" edge="1" parent="1" source="1gYpZBUZ1nTDD1e3TG9W-12" target="1gYpZBUZ1nTDD1e3TG9W-13">
          <mxGeometry width="50" height="50" relative="1" as="geometry">
            <mxPoint x="430" y="510" as="sourcePoint" />
            <mxPoint x="480" y="460" as="targetPoint" />
          </mxGeometry>
        </mxCell>
        <mxCell id="1gYpZBUZ1nTDD1e3TG9W-16" value="" style="endArrow=none;html=1;rounded=0;exitX=1;exitY=1;exitDx=0;exitDy=0;entryX=0.75;entryY=0;entryDx=0;entryDy=0;" edge="1" parent="1" source="1gYpZBUZ1nTDD1e3TG9W-1" target="1gYpZBUZ1nTDD1e3TG9W-11">
          <mxGeometry width="50" height="50" relative="1" as="geometry">
            <mxPoint x="520" y="320" as="sourcePoint" />
            <mxPoint x="570" y="270" as="targetPoint" />
          </mxGeometry>
        </mxCell>
        <mxCell id="1gYpZBUZ1nTDD1e3TG9W-17" value="Логика системы для управления\nтранспортом и водителями" style="shape=note;strokeWidth=2;fontSize=14;size=20;whiteSpace=wrap;html=1;fillColor=#fff2cc;strokeColor=#d6b656;fontColor=#666600;" vertex="1" parent="1">
          <mxGeometry x="630" y="220" width="270" height="80" as="geometry" />
        </mxCell>
        <mxCell id="1gYpZBUZ1nTDD1e3TG9W-18" value="&amp;nbsp;Класс для пользователей системы" style="shape=note;strokeWidth=2;fontSize=14;size=20;whiteSpace=wrap;html=1;fillColor=#fff2cc;strokeColor=#d6b656;fontColor=#666600;" vertex="1" parent="1">
          <mxGeometry x="540" y="406" width="280" height="40" as="geometry" />
        </mxCell>
        <mxCell id="1gYpZBUZ1nTDD1e3TG9W-19" value="Класс для ролей пользователей (например, Admin, User)" style="shape=note;strokeWidth=2;fontSize=14;size=20;whiteSpace=wrap;html=1;fillColor=#fff2cc;strokeColor=#d6b656;fontColor=#666600;" vertex="1" parent="1">
          <mxGeometry x="540" y="496" width="270" height="40" as="geometry" />
        </mxCell>
        <mxCell id="1gYpZBUZ1nTDD1e3TG9W-20" value="Класс для транспортных средств\n(состояние, модель, номер)" style="shape=note;strokeWidth=2;fontSize=14;size=20;whiteSpace=wrap;html=1;fillColor=#fff2cc;strokeColor=#d6b656;fontColor=#666600;" vertex="1" parent="1">
          <mxGeometry x="-190" y="130" width="280" height="40" as="geometry" />
        </mxCell>
        <mxCell id="1gYpZBUZ1nTDD1e3TG9W-21" value="Класс для рейсов\n(маршрут, дата начала и окончания)" style="shape=note;strokeWidth=2;fontSize=14;size=20;whiteSpace=wrap;html=1;fillColor=#fff2cc;strokeColor=#d6b656;fontColor=#666600;" vertex="1" parent="1">
          <mxGeometry x="90" y="290" width="360" height="40" as="geometry" />
        </mxCell>
        <mxCell id="1gYpZBUZ1nTDD1e3TG9W-22" value="Класс для водителей\n(имя, номер прав, стаж)" style="shape=note;strokeWidth=2;fontSize=14;size=20;whiteSpace=wrap;html=1;fillColor=#fff2cc;strokeColor=#d6b656;fontColor=#666600;" vertex="1" parent="1">
          <mxGeometry x="510" y="142" width="280" height="40" as="geometry" />
        </mxCell>
        <mxCell id="1gYpZBUZ1nTDD1e3TG9W-24" value="1" style="text;html=1;align=center;verticalAlign=middle;whiteSpace=wrap;rounded=0;" vertex="1" parent="1">
          <mxGeometry x="400" y="182" width="60" height="30" as="geometry" />
        </mxCell>
        <mxCell id="1gYpZBUZ1nTDD1e3TG9W-25" value="1" style="text;html=1;align=center;verticalAlign=middle;whiteSpace=wrap;rounded=0;" vertex="1" parent="1">
          <mxGeometry x="440" y="466" width="60" height="30" as="geometry" />
        </mxCell>
        <mxCell id="1gYpZBUZ1nTDD1e3TG9W-26" value="1" style="text;html=1;align=center;verticalAlign=middle;whiteSpace=wrap;rounded=0;" vertex="1" parent="1">
          <mxGeometry x="380" y="446" width="60" height="30" as="geometry" />
        </mxCell>
        <mxCell id="1gYpZBUZ1nTDD1e3TG9W-27" value="*&lt;div&gt;&lt;br&gt;&lt;/div&gt;" style="text;html=1;align=center;verticalAlign=middle;whiteSpace=wrap;rounded=0;" vertex="1" parent="1">
          <mxGeometry x="160" y="240" width="60" height="30" as="geometry" />
        </mxCell>
        <mxCell id="1gYpZBUZ1nTDD1e3TG9W-28" value="*&lt;div&gt;&lt;br&gt;&lt;/div&gt;" style="text;html=1;align=center;verticalAlign=middle;whiteSpace=wrap;rounded=0;" vertex="1" parent="1">
          <mxGeometry x="740" y="340" width="60" height="30" as="geometry" />
        </mxCell>
        <mxCell id="1gYpZBUZ1nTDD1e3TG9W-29" value="1" style="text;html=1;align=center;verticalAlign=middle;whiteSpace=wrap;rounded=0;" vertex="1" parent="1">
          <mxGeometry x="440" y="240" width="60" height="30" as="geometry" />
        </mxCell>
        <mxCell id="1gYpZBUZ1nTDD1e3TG9W-31" value="1" style="text;html=1;align=center;verticalAlign=middle;whiteSpace=wrap;rounded=0;" vertex="1" parent="1">
          <mxGeometry x="160" y="182" width="60" height="30" as="geometry" />
        </mxCell>
        <mxCell id="1gYpZBUZ1nTDD1e3TG9W-32" value="*&lt;div&gt;&lt;br&gt;&lt;/div&gt;" style="text;html=1;align=center;verticalAlign=middle;whiteSpace=wrap;rounded=0;" vertex="1" parent="1">
          <mxGeometry x="354" y="230" width="60" height="30" as="geometry" />
        </mxCell>
      </root>
    </mxGraphModel>
  </diagram>
</mxfile>
